<?xml version="1.0" encoding="utf-8"?>
<!-- Generator: Adobe Illustrator 27.5.0, SVG Export Plug-In . SVG Version: 6.00 Build 0)  -->
<svg version="1.1" xmlns="http://www.w3.org/2000/svg" xmlns:xlink="http://www.w3.org/1999/xlink" x="0px" y="0px"
	 viewBox="0 0 500 500" style="enable-background:new 0 0 500 500;" xml:space="preserve">
<g id="BACKGROUND">
	<rect y="0" style="fill:transparent" width="500" height="500"/>
</g>
<g id="OBJECTS">
	<g>
		<g>
			<g>
				
					<text transform="matrix(1 0 0 1 145.0107 419.3739)" style="fill:#0C264C; font-family:'Metropolis-SemiBold'; font-size:36.7291px;">TRAVELING</text>
			</g>
			<g>
				<g>
					
						<text transform="matrix(1 0 0 1 188.6245 432.2206)" style="fill:#0C264C; font-family:'OpenSans-Semibold'; font-size:10.5567px; letter-spacing:1;">YOUR TAGLINE HERE</text>
				</g>
				<g>
					<g>
						<circle style="fill:#0C264C;" cx="317.651" cy="428.762" r="1.796"/>
						<circle style="fill:#0C264C;" cx="325.101" cy="428.762" r="1.796"/>
						<circle style="fill:#0C264C;" cx="332.551" cy="428.762" r="1.796"/>
					</g>
					<g>
						<circle style="fill:#0C264C;" cx="167.449" cy="428.762" r="1.796"/>
						<circle style="fill:#0C264C;" cx="174.899" cy="428.762" r="1.796"/>
						<circle style="fill:#0C264C;" cx="182.349" cy="428.762" r="1.796"/>
					</g>
				</g>
			</g>
		</g>
		<g>
			<g>
				<circle style="fill:#FFFFFF;" cx="250" cy="220.758" r="155.958"/>
				<g>
					<linearGradient id="SVGID_1_" gradientUnits="userSpaceOnUse" x1="250" y1="232.7417" x2="250" y2="64.7999">
						<stop  offset="0" style="stop-color:#FF5E57"/>
						<stop  offset="0.6224" style="stop-color:#FFBD4A"/>
					</linearGradient>
					<path style="fill:url(#SVGID_1_);" d="M250,220.758c64.5,0,121.437,4.745,155.504,11.984c0.301-3.955,0.454-7.952,0.454-11.984
						C405.958,134.625,336.133,64.8,250,64.8S94.042,134.625,94.042,220.758c0,4.032,0.153,8.029,0.454,11.984
						C128.563,225.503,185.5,220.758,250,220.758z"/>
					
						<linearGradient id="SVGID_00000052097539855033447700000007015354011871317157_" gradientUnits="userSpaceOnUse" x1="94.4958" y1="298.7368" x2="405.5042" y2="298.7368">
						<stop  offset="0" style="stop-color:#3784DE"/>
						<stop  offset="1" style="stop-color:#7BD2FD"/>
					</linearGradient>
					<path style="fill:url(#SVGID_00000052097539855033447700000007015354011871317157_);" d="M404.773,240.056
						c0.299-2.421,0.544-4.859,0.731-7.314C371.437,225.503,314.5,220.758,250,220.758s-121.437,4.745-155.504,11.984l169.288,1.013
						l-159.109,11.027l31.507,6.301l-37.874,6.012c1.92,8.044,4.462,15.846,7.574,23.353l66.532-2.584l-27.568,5.514l137.842,2.363
						l-170.844,7.428c5.552,10.571,12.279,20.426,20.012,29.392l70.49,2.563l-60.427,8.057c3.611,3.472,7.39,6.771,11.321,9.885
						l41.229,2.537l-31.771,4.399c24.912,16.861,54.955,26.714,87.301,26.714c30.706,0,59.338-8.876,83.474-24.199l-56.299-5.339
						h64.156c5.124-3.708,10.016-7.715,14.645-12.004l-78.801-7.688l92.185-6.358c0.879-1.044,1.743-2.1,2.595-3.168l-110.534-9.379
						l120.742-5.005c1.211-1.929,2.382-3.886,3.51-5.87l-39.184-6.454l33.082-2.363l-24.418-2.363l28.356-5.514l-127.602-14.966
						h143.367c1.479-4.883,2.729-9.865,3.729-14.937l-49.426-11.056H404.773z"/>
				</g>
				<path style="fill:#4392E3;" d="M250,220.758c-17.486,0-34.41,0.351-50.479,1.004l78.835,5.297l-39.777,1.575l82.311,3.544
					l-93.732,8.664l71.678,5.12l-65.376,3.938l138.235,4.726l-75.616-14.572l36.233-1.575l-12.209-2.757l52.774-2.757l-42.928-5.908
					l29.575-1.164C328.634,222.662,290.838,220.758,250,220.758z"/>
				<polygon style="fill:#4392E3;" points="210.223,265.261 331.13,281.014 212.586,269.593 309.075,284.559 288.202,287.71 
					337.825,291.648 213.374,299.131 277.568,292.042 264.572,292.042 287.808,284.559 226.37,277.47 239.76,276.682 
					162.963,266.049 205.103,268.412 187.381,264.08 				"/>
				<path style="fill:#0C264C;" d="M384.719,202.243l4.323-4.323c1.274-1.274,1.274-3.34,0-4.614c-1.274-1.274-3.34-1.274-4.614,0
					l-0.357,0.357l-1.388-18.368l4.344-4.344c1.274-1.274,1.274-3.34,0-4.614c-1.274-1.274-3.34-1.274-4.614,0l-0.378,0.378
					l-1.643-21.75c11.919-11.245,21.364-20.196,23.5-22.332c8.448-8.448,5.784-21.251,4.484-22.551
					c-1.3-1.3-14.102-3.964-22.551,4.484c-2.136,2.136-11.087,11.581-22.332,23.5l-21.75-1.643l0.378-0.378
					c1.274-1.274,1.274-3.34,0-4.614c-1.274-1.274-3.34-1.274-4.614,0l-4.344,4.344l-18.368-1.388l0.357-0.357
					c1.274-1.274,1.274-3.34,0-4.614c-1.274-1.274-3.34-1.274-4.614,0l-4.323,4.323l-28.398-2.146l-6.369,6.369l51.86,14.947
					l14.873,12.04c-13.313,15.905-34.239,39.95-34.239,39.95l-28.139-3.314l-4.289,4.289l20.276,12.478
					c-2.21,2.47-1.43,4.549-1.43,4.549c-3.899,3.899-2.21,7.409-2.21,7.409s3.509,1.69,7.409-2.21c0,0,2.08,0.78,4.549-1.43
					l12.478,20.276l4.289-4.289l-3.314-28.139c0,0,24.045-20.926,39.95-34.239l12.04,14.873l14.947,51.86l6.369-6.369
					L384.719,202.243z"/>
				<path style="fill:#0C264C;" d="M228.402,267.979c-9.73,6.81-19.64,13.309-29.736,19.377
					c-10.092,6.062-20.384,11.703-30.836,16.58c-5.222,2.438-10.489,4.668-15.75,6.593c-5.254,1.914-10.529,3.521-15.591,4.549
					c-2.524,0.509-4.99,0.861-7.269,0.99c-2.268,0.13-4.374,0.035-5.951-0.294c-0.778-0.168-1.404-0.393-1.862-0.604
					c-0.417-0.235-0.644-0.456-0.701-0.596c-0.061-0.141,0.076-0.218,0.17-0.255c0.098-0.034,0.188-0.046,0.224-0.246
					c0.05-0.312-0.046-1.38,0.112-2.934c0.061-0.611,0.162-1.296,0.287-2.013c-9.125-13.244-16.241-27.972-20.944-43.742
					c-1.861,4.516-3.592,9.152-5.152,13.952c-2.046,6.463-3.837,13.179-4.748,20.736c-0.437,3.787-0.65,7.808-0.299,12.219
					c0.197,2.221,0.513,4.517,1.141,6.959c0.586,2.404,1.495,4.961,2.801,7.485c2.503,5.088,7.176,9.881,12.304,12.497
					c2.547,1.325,5.119,2.198,7.577,2.771c2.437,0.53,4.766,0.785,6.966,0.86c4.385,0.12,8.275-0.407,11.913-1.144
					c3.631-0.751,6.996-1.757,10.215-2.889c6.423-2.282,12.301-5.049,17.94-8.032c5.628-2.995,11.005-6.216,16.221-9.592
					c10.427-6.752,20.252-14.069,29.733-21.711c9.476-7.645,18.598-15.619,27.449-23.835c17.692-16.441,34.316-33.831,50.062-51.881
					C266.607,239.498,247.86,254.347,228.402,267.979z"/>
			</g>
			<path style="fill:#0C264C;" d="M326.735,223.145c-12.172-4.226-37.868-12.581-47.198-11.248
				c-12.406,1.772-17.723,2.954-28.356,1.182c-10.633-1.772-15.95-2.954-23.63-4.135c-7.68-1.181-6.498-5.317-17.132-5.317
				c-10.633,0-23.63,0.591-23.63,0.591l-21.858,2.954c0,0-2.954-4.135-7.68-4.726c-4.726-0.591-7.68-5.317-14.178-5.908
				c-6.498-0.591-10.043-0.591-12.997,0.591c-2.954,1.182-8.27,1.772-11.815,1.772c-3.545,0-5.317-1.772-8.271-1.772
				s-3.545-1.182-7.68-1.182c-1.363,0-3.755,0.129-6.348,0.301c-1.261,7.986-1.923,16.17-1.923,24.511
				c0,4.032,0.153,8.029,0.454,11.984c34.067-7.239,91.004-11.984,155.504-11.984C277.327,220.758,303.287,221.612,326.735,223.145z
				"/>
		</g>
	</g>
</g>
</svg>
