<?xml version="1.0" encoding="utf-8"?>
<!-- Generator: Adobe Illustrator 24.0.0, SVG Export Plug-In . SVG Version: 6.00 Build 0)  -->
<svg version="1.1" xmlns="http://www.w3.org/2000/svg" xmlns:xlink="http://www.w3.org/1999/xlink" x="0px" y="0px"
	 viewBox="0 0 500 500" style="enable-background:new 0 0 500 500;" xml:space="preserve">
<style type="text/css">
	.st0{display:none;}
	.st1{display:inline;fill:#E4D6CC;}
	.st2{display:inline;fill:#F4E8D8;}
	.st3{fill:#C9B5A9;}
	.st4{fill:#FFFFFF;}
	.st5{fill:#2E344B;}
	.st6{fill:#D8877B;}
	.st7{fill:#B44E50;}
	.st8{fill:#4F6E59;}
	.st9{fill:#6779B7;}
	.st10{fill:#5F2A3D;}
	.st11{fill:#B9CFE6;}
	.st12{fill:#C85F64;}
	.st13{fill:#8EADD5;}
	.st14{fill:#D3723F;}
	.st15{fill:#EBAB6F;}
	.st16{fill:#F4E8D8;}
	.st17{font-family:'Quicksand-Bold';}
	.st18{font-size:36.7059px;}
	.st19{font-size:32.3702px;}
</style>
<g id="BACKGROUND" class="st0">
	<rect class="st1" width="500" height="500"/>
	<circle class="st2" cx="383.74" cy="151.63" r="37.08"/>
	<circle class="st2" cx="190.08" cy="258.48" r="87.64"/>
</g>
<g id="OBJECTS">
	<ellipse class="st3" cx="263.13" cy="442.93" rx="201.06" ry="13.1"/>
	<g>
		<path class="st4" d="M171.41,49.85l4.34,1.41l-4.34,1.41c-1.77,0.57-3.16,1.96-3.73,3.73l-1.41,4.34l-1.41-4.34
			c-0.57-1.77-1.96-3.16-3.73-3.73l-4.34-1.41l4.34-1.41c1.77-0.57,3.16-1.96,3.73-3.73l1.41-4.34l1.41,4.34
			C168.25,47.89,169.64,49.27,171.41,49.85z"/>
		<path class="st4" d="M437.79,331.46l4.34,1.41l-4.34,1.41c-1.77,0.57-3.16,1.96-3.73,3.73l-1.41,4.34l-1.41-4.34
			c-0.57-1.77-1.96-3.16-3.73-3.73l-4.34-1.41l4.34-1.41c1.77-0.57,3.16-1.96,3.73-3.73l1.41-4.34l1.41,4.34
			C434.63,329.5,436.02,330.89,437.79,331.46z"/>
		<path class="st4" d="M60.97,294.16l4.34,1.41l-4.34,1.41c-1.77,0.57-3.16,1.96-3.73,3.73l-1.41,4.34l-1.41-4.34
			c-0.57-1.77-1.96-3.16-3.73-3.73l-4.34-1.41l4.34-1.41c1.77-0.57,3.16-1.96,3.73-3.73l1.41-4.34l1.41,4.34
			C57.81,292.19,59.2,293.58,60.97,294.16z"/>
		<path class="st4" d="M256.09,162.02l2.52,0.82l-2.52,0.82c-1.03,0.33-1.83,1.14-2.17,2.17l-0.82,2.52l-0.82-2.52
			c-0.33-1.03-1.14-1.83-2.17-2.17l-2.52-0.82l2.52-0.82c1.03-0.33,1.83-1.14,2.17-2.17l0.82-2.52l0.82,2.52
			C254.26,160.88,255.07,161.69,256.09,162.02z"/>
		<path class="st4" d="M102.09,107.74l2.52,0.82l-2.52,0.82c-1.03,0.33-1.83,1.14-2.17,2.17l-0.82,2.52l-0.82-2.52
			c-0.33-1.03-1.14-1.83-2.17-2.17l-2.52-0.82l2.52-0.82c1.03-0.33,1.83-1.14,2.17-2.17l0.82-2.52l0.82,2.52
			C100.25,106.6,101.06,107.41,102.09,107.74z"/>
		<path class="st4" d="M70.36,272.2l2.52,0.82l-2.52,0.82c-1.03,0.33-1.83,1.14-2.17,2.17l-0.82,2.52L66.56,276
			c-0.33-1.03-1.14-1.83-2.17-2.17l-2.52-0.82l2.52-0.82c1.03-0.33,1.83-1.14,2.17-2.17l0.82-2.52l0.82,2.52
			C68.53,271.06,69.34,271.87,70.36,272.2z"/>
	</g>
	<g>
		<path class="st5" d="M396.56,335.74c0,0-8.83,0.97-12.28,2.9c-3.45,1.93-5.11,8.42,0.97,8.42c6.07,0,15.73,0,19.87,0
			s2.48-9.24,0.28-11.73L396.56,335.74z"/>
		<path class="st6" d="M392.52,321.77c0,0,2.25,12.06,2.87,14.04c0.96,3.03,9.45,2.87,10.21-0.48c1.12-4.95,1.12-14.99,1.12-14.99
			L392.52,321.77z"/>
		<path class="st4" d="M390.96,338.88c-0.19-0.35-0.44-0.68-0.74-0.95c-0.31-0.28-0.65-0.53-1-0.76c-0.37-0.24-0.8-0.53-1.25-0.5
			c-0.3,0.02-0.61,0.31-0.49,0.64c0.05,0.14,0.1,0.27,0.2,0.38c0.06,0.07,0.13,0.13,0.19,0.19c0.06,0.06,0.13,0.11,0.2,0.16
			c0.01,0.01,0.03,0.02,0.05,0.04c-0.01-0.01-0.02-0.01-0.04-0.02c0.08,0.05,0.14,0.11,0.21,0.17c0.28,0.23,0.54,0.47,0.77,0.74
			c0.05,0.06,0.09,0.12,0.14,0.17c-0.17-0.19,0.04,0.06,0.07,0.1c0.09,0.14,0.18,0.26,0.26,0.4c0.04,0.07,0.08,0.15,0.11,0.22
			c0.01,0.02,0.01,0.03,0.02,0.03c0.03,0.07,0.05,0.13,0.09,0.2c0.03,0.06,0.07,0.13,0.1,0.19c0.09,0.16,0.22,0.25,0.36,0.34
			c0.3,0.19,0.69,0.05,0.87-0.23C391.43,339.93,391.21,339.33,390.96,338.88z"/>
		<path class="st4" d="M394.46,338.55c-0.07-0.22-0.15-0.44-0.27-0.64c-0.2-0.35-0.46-0.68-0.74-0.98
			c-0.56-0.59-1.32-1.11-2.14-1.19c-0.21-0.02-0.43,0.16-0.5,0.34c-0.08,0.18-0.06,0.47,0.11,0.6c0.15,0.12,0.31,0.24,0.48,0.35
			c0.04,0.03,0.07,0.05,0.11,0.08c0.01,0,0.01,0.01,0.02,0.01c0.06,0.03,0.11,0.09,0.16,0.13c0.25,0.21,0.49,0.44,0.7,0.7
			c0.02,0.03,0.05,0.06,0.07,0.1c0.05,0.07,0.09,0.14,0.13,0.21c0.09,0.14,0.16,0.29,0.23,0.43c0.07,0.15,0.14,0.3,0.21,0.44
			c0.01,0.02,0.01,0.02,0.01,0.02c0.01,0.03,0.02,0.06,0.04,0.09c0.04,0.08,0.11,0.16,0.17,0.22c0.06,0.05,0.12,0.1,0.18,0.16
			c0.33,0.31,0.85,0.17,0.99-0.26C394.5,339.08,394.54,338.83,394.46,338.55z"/>
		<path class="st4" d="M404.08,340.93c-0.09-0.33-0.26-0.61-0.5-0.85c-0.13-0.1-0.26-0.2-0.39-0.3c-0.3-0.17-0.63-0.26-0.97-0.26
			c-0.27-0.01-0.51,0.05-0.74,0.17c-0.24,0.08-0.45,0.21-0.62,0.4c-0.19,0.17-0.32,0.38-0.4,0.62c-0.12,0.23-0.18,0.48-0.17,0.74
			c0.02,0.17,0.05,0.34,0.07,0.51c0.09,0.33,0.26,0.61,0.5,0.85c0.13,0.1,0.26,0.2,0.39,0.3c0.3,0.17,0.63,0.26,0.97,0.26
			c0.27,0.01,0.51-0.05,0.74-0.17c0.24-0.08,0.45-0.21,0.62-0.4c0.19-0.17,0.32-0.38,0.4-0.62c0.12-0.23,0.18-0.48,0.17-0.74
			C404.13,341.27,404.1,341.1,404.08,340.93z"/>
		<path class="st7" d="M392.94,324.03c1.97,0.88,7.05,2.54,13.62,2.2c0.15-3.24,0.15-5.89,0.15-5.89l-14.2,1.44
			C392.52,321.77,392.68,322.68,392.94,324.03z"/>
		<path class="st5" d="M361.79,335.74c0,0-8.83,0.97-12.28,2.9c-3.45,1.93-5.11,8.42,0.97,8.42s15.73,0,19.87,0
			c4.14,0,2.48-9.24,0.28-11.73L361.79,335.74z"/>
		<path class="st6" d="M357.74,321.77c0,0,2.25,12.06,2.87,14.04c0.96,3.03,9.45,2.87,10.21-0.48c1.12-4.95,1.12-14.99,1.12-14.99
			L357.74,321.77z"/>
		<path class="st4" d="M356.18,338.88c-0.19-0.35-0.44-0.68-0.74-0.95c-0.31-0.28-0.65-0.53-1-0.76c-0.37-0.24-0.8-0.53-1.25-0.5
			c-0.3,0.02-0.61,0.31-0.49,0.64c0.05,0.14,0.1,0.27,0.2,0.38c0.06,0.07,0.13,0.13,0.19,0.19c0.06,0.06,0.13,0.11,0.2,0.16
			c0.01,0.01,0.03,0.02,0.05,0.04c-0.01-0.01-0.01-0.01-0.04-0.02c0.08,0.05,0.14,0.11,0.21,0.17c0.28,0.23,0.54,0.47,0.77,0.74
			c0.05,0.06,0.09,0.12,0.14,0.17c-0.17-0.19,0.04,0.06,0.07,0.1c0.09,0.14,0.18,0.26,0.26,0.4c0.04,0.07,0.08,0.15,0.11,0.22
			c0.01,0.02,0.01,0.03,0.02,0.03c0.03,0.07,0.05,0.13,0.09,0.2c0.03,0.06,0.07,0.13,0.1,0.19c0.09,0.16,0.22,0.25,0.36,0.34
			c0.3,0.19,0.69,0.05,0.87-0.23C356.66,339.93,356.43,339.33,356.18,338.88z"/>
		<path class="st4" d="M359.68,338.55c-0.07-0.22-0.15-0.44-0.27-0.64c-0.2-0.35-0.46-0.68-0.74-0.98
			c-0.56-0.59-1.32-1.11-2.14-1.19c-0.21-0.02-0.43,0.16-0.5,0.34c-0.08,0.18-0.06,0.47,0.11,0.6c0.15,0.12,0.31,0.24,0.48,0.35
			c0.04,0.03,0.07,0.05,0.11,0.08c0.01,0,0.01,0.01,0.02,0.01c0.06,0.03,0.11,0.09,0.16,0.13c0.25,0.21,0.49,0.44,0.7,0.7
			c0.02,0.03,0.05,0.06,0.07,0.1c0.05,0.07,0.09,0.14,0.13,0.21c0.09,0.14,0.16,0.29,0.23,0.43c0.07,0.15,0.14,0.3,0.21,0.44
			c0.01,0.02,0.01,0.02,0.01,0.02c0.01,0.03,0.02,0.06,0.04,0.09c0.04,0.08,0.11,0.16,0.17,0.22c0.06,0.05,0.12,0.1,0.18,0.16
			c0.33,0.31,0.85,0.17,0.99-0.26C359.72,339.08,359.77,338.83,359.68,338.55z"/>
		<path class="st4" d="M369.31,340.93c-0.09-0.33-0.26-0.61-0.5-0.85c-0.13-0.1-0.26-0.2-0.39-0.3c-0.3-0.17-0.63-0.26-0.97-0.26
			c-0.27-0.01-0.51,0.05-0.74,0.17c-0.24,0.08-0.45,0.21-0.62,0.4c-0.19,0.17-0.32,0.38-0.4,0.62c-0.12,0.23-0.18,0.48-0.17,0.74
			c0.02,0.17,0.05,0.34,0.07,0.51c0.09,0.33,0.26,0.61,0.5,0.85c0.13,0.1,0.26,0.2,0.39,0.3c0.3,0.17,0.63,0.26,0.97,0.26
			c0.27,0.01,0.51-0.05,0.74-0.17c0.24-0.08,0.45-0.21,0.62-0.4c0.19-0.17,0.32-0.38,0.4-0.62c0.12-0.23,0.18-0.48,0.17-0.74
			C369.35,341.27,369.33,341.1,369.31,340.93z"/>
		<path class="st7" d="M358.17,324.03c1.97,0.88,7.05,2.54,13.62,2.2c0.15-3.24,0.15-5.89,0.15-5.89l-14.2,1.44
			C357.74,321.77,357.91,322.68,358.17,324.03z"/>
		<path class="st8" d="M400.97,225.74c1.12,3.67,4.63,13.24,4.95,24.41s1.6,64.92,2.07,73.22h-17.07c0,0-11.33-41.16-11.96-72.26
			c0,0-4.11,24.87-5.58,35.73c-1.75,12.92,0.64,36.69,0.64,36.69h-18.19c0,0-5.9-39.56-3.19-60.3c2.71-20.74,7.34-38.92,7.34-38.92
			L400.97,225.74z"/>
		<path class="st5" d="M402.24,229.78c-0.52-1.7-0.98-3.07-1.27-4.03l-20.55-0.72l-4.02,1.2l0.08,4.07
			C376.48,230.29,388.61,233.75,402.24,229.78z"/>
		<path class="st5" d="M349.52,188.91c0,0,5.14,2.51,10.59,2.09c5.44-0.42-0.36-4.19-0.36-4.19L349.52,188.91z"/>
		<path class="st6" d="M361.81,189.37c0.42-0.12-1.52,7.26-3.19,10.85c-1.04,2.24-9.09,12.84-9.09,12.84l-7.1-4.31
			c0,0,7.1-12,7.7-13.44c0.6-1.44,2.03-11.84,2.03-11.84l7.42-1.08L361.81,189.37z"/>
		<path class="st7" d="M352.16,183.47c0,0-0.4,2.88-0.86,5.81c1.38,0.29,6.8,1.52,9.93,3.28c0.5-1.86,0.76-3.24,0.58-3.19
			l-1.93-6.03l-1.94-0.71L352.16,183.47z"/>
		<path class="st9" d="M389.55,162.46c5.68,0.78,10.23,2.58,12.86,5.33c2.63,2.75,3.35,28.35,2.15,31.82l-1.36-0.76l-3.07,2.91
			c0,0-0.12,15.55,2.39,24.29c0,0-19.86,9.09-43.55-1.68c0,0,4.67-8.02,3.35-21.54c-0.21-2.15-2.51-7.78-2.39-13.16
			c0,0-6.94-1.32-10.41-0.78c0,0,3.11-16.09,5.98-19.8c2.87-3.71,9.21-5.62,11.61-6.22c2.39-0.6,6.82,0.84,6.82,0.84l9.69-0.48
			L389.55,162.46z"/>
		<path class="st5" d="M402.03,224.1c-0.06-0.28-0.13-0.57-0.18-0.86c-1.95,0.64-3.91,1.23-5.91,1.71c-2.97,0.71-5.97,1.2-9.01,1.49
			c-6.08,0.58-12.23,0.38-18.29-0.33c-2.95-0.35-5.87-0.83-8.79-1.35c0.78,0.34,1.55,0.66,2.32,0.95c4.72,1.02,9.57,1.55,14.36,1.74
			c6.2,0.25,12.45-0.22,18.52-1.46C397.41,225.52,399.75,224.9,402.03,224.1z"/>
		<path class="st5" d="M332.38,209.31l42.79,35.37c2.3,1.9,5.69,1.67,7.71-0.53l0.73-0.79c2.04-2.22,1.96-5.66-0.19-7.78
			l-39.4-39.03L332.38,209.31z"/>
		<path class="st10" d="M384.08,128.91c0,0,1.11-7.46,9.93-7.89c8.82-0.43,12.33,6.23,13.06,12.84c0.73,6.61,1.62,10.07,3.74,11.42
			c0,0-8.55,7.27-15.48-1.28C388.41,135.43,384.08,128.91,384.08,128.91z"/>
		<path class="st5" d="M390.29,121.73c-5.42,1.95-6.21,7.18-6.21,7.18s4.15,6.26,10.83,14.56c1.21-0.2,2.14-1.28,2.62-3.66
			C399.56,129.63,392.97,123.68,390.29,121.73z"/>
		<path class="st10" d="M369.95,157.8c-5.53-3.83-8.15-3.13-9.26-17.56c-1.11-14.43,21.51-26.57,32.44-12.73
			c6.87,8.71,7.48,24.33-3.59,28.14C377.15,159.92,369.95,157.8,369.95,157.8z"/>
		<circle class="st5" cx="313.23" cy="178.48" r="37.93"/>
		<circle class="st11" cx="313.23" cy="178.48" r="28.58"/>
		<path class="st6" d="M371.54,156.75c0,0-0.08,2.07-0.48,3.75c-0.4,1.68-3.95,2.39-3.95,2.39s2.43,5.98,8.02,7.1l1.91,8.06
			l2.71-7.74c0,0,6.52-0.98,9.79-7.84c0,0-1.26-0.13-2.93-0.85c-1.68-0.72-1.6-5.58-1.6-5.58L371.54,156.75z"/>
		<path class="st6" d="M337.32,218.72c-1.05-3.75,0-6.22,0.88-7.42c0.88-1.2,1.6,0.32,1.68,0.8c0.08,0.48-0.16,3.67-0.16,3.67
			s0.64-1.99,1.91-4.23c1.28-2.23,2.71-2.95,3.59-1.28c0,0,1.28-0.72,2.07,1.2c0,0,1.67,0.32,1.36,2.55c0,0,1.12,0.96,0.72,2.55
			s-2.15,3.43-2.87,5.9C345.78,224.94,338.74,223.81,337.32,218.72z"/>
		<path class="st5" d="M404.56,199.62c-2.45,0.66-13.1-1.97-14.48-2.75c0,0,0.75-0.75,1.79-0.96l6.46,1.65l2.63,0.63l2.23,0.68
			L404.56,199.62z"/>
		<path class="st6" d="M391.88,195.91c0,0-1.12,4.11-2.87,6.58c-1.75,2.47-18.11,19.18-18.98,19.9c-0.88,0.72-6.62,0.48-8.3,1.52
			c-1.67,1.04-0.32,2.15,0.96,2.07c1.28-0.08,3.43,0.24,3.43,0.24s-1.36,2.39-2.15,3.19c-0.8,0.8-3.19,1.99-4.07,2.23
			c-0.88,0.24-0.72,2.23,0.32,2.15c0,0-1.04,1.83,1.12,2.55c0,0-0.48,1.2,1.6,1.36c0,0,0.08,0.56,2.31,0.4
			c2.23-0.16,5.02-3.03,6.22-4.23c1.2-1.2,3.27-4.95,3.83-5.34c0.56-0.4,18.9-15.47,21.69-18.66c2.79-3.19,6.22-11.01,6.22-11.01
			S397.38,194.79,391.88,195.91z"/>
		<path class="st7" d="M387.56,161.98c-0.3-0.1-0.61-0.22-0.95-0.36c-1.68-0.72-1.6-5.58-1.6-5.58l-7.24,0.39l-4.42,0.71l-1.97,1.47
			c-0.03,0.25-0.07,0.51-0.11,0.78C372.77,160.73,378.41,164.98,387.56,161.98z"/>
		<path class="st6" d="M390.6,141.76c0,0,3.38-2,5.51,1.37c2.13,3.38-1.34,6.25-4.19,6.25c0,0-2.69,11.92-13,12.37
			c-10.25,0.44-14.67-10.06-15.5-17.83c0,0,4.62-2.18,5.13-4.68c0.51-2.5,6.82-2.77,9.97-7.37c0,0,2.43,4.6,5.41,4.85
			C386.92,136.96,389.9,140.05,390.6,141.76z"/>
		<path class="st7" d="M383.93,136.71c-2.99-0.24-5.41-4.85-5.41-4.85c-3.15,4.6-9.46,4.87-9.97,7.37c-0.51,2.5-5.13,4.68-5.13,4.68
			c0.03,0.26,0.06,0.52,0.1,0.79c1.79-0.41,5.03-2.69,5.78-4.4c0.84-1.91,5.95-2.78,8.94-6.25c0,0,2.21,3.41,5.44,3.77
			c2.52,0.28,5.12,2.33,6.49,3.15C389.07,139.24,386.5,136.92,383.93,136.71z"/>
		<path class="st7" d="M394.76,143.69c0.11-0.27-0.14-0.55-0.33-0.71c-0.22-0.19-0.46-0.34-0.74-0.42
			c-0.51-0.16-1.12-0.06-1.48,0.36c-0.33,0.38-0.4,0.91-0.37,1.4c0.03,0.62,0.11,1.24,0.21,1.85c0.05,0.34,0.57,0.46,0.78,0.21
			c0.21-0.25,0.69-0.57,0.97-0.22c0.12,0.15,0.05,0.38-0.03,0.53c-0.07,0.13-0.16,0.24-0.23,0.36c-0.08,0.14-0.12,0.29-0.16,0.44
			c-0.05,0.21,0.14,0.43,0.36,0.36c0.48-0.15,0.78-0.5,0.94-0.98c0.15-0.45,0.08-0.95-0.23-1.31c-0.41-0.48-1.03-0.54-1.56-0.33
			c-0.02-0.24-0.06-0.47-0.07-0.71c-0.01-0.3-0.05-0.7,0.15-0.93C393.42,143.02,394.43,144.48,394.76,143.69z"/>
		<path class="st7" d="M391.88,195.91c0,0-0.06,0.24-0.18,0.62c0.91,0.29,6.45,1.21,10.64,4.21c0.54-1.13,0.87-1.88,0.87-1.88
			S397.38,194.79,391.88,195.91z"/>
		<path class="st7" d="M367.59,229.47c-0.31,0.15-0.54,0.5-0.76,0.76c-0.25,0.29-0.5,0.59-0.77,0.86c-0.5,0.51-1.07,0.96-1.68,1.32
			c-1.21,0.73-2.54,1.25-3.94,1.45c-0.15,0.02-0.12,0.28,0.04,0.27c1.46-0.1,2.91-0.51,4.15-1.31c0.6-0.39,1.17-0.83,1.67-1.34
			c0.3-0.3,0.58-0.62,0.86-0.94c0.24-0.27,0.56-0.54,0.69-0.88C367.91,229.51,367.71,229.41,367.59,229.47z"/>
		<path class="st7" d="M369.21,232.11c-0.56,0.48-1.08,1-1.67,1.44c-0.59,0.44-1.22,0.83-1.87,1.17c-1.3,0.69-2.72,1.16-4.16,1.47
			c-0.19,0.04-0.11,0.32,0.08,0.29c1.5-0.24,2.93-0.74,4.28-1.42c0.68-0.34,1.33-0.73,1.95-1.16c0.61-0.42,1.26-0.88,1.76-1.43
			C369.8,232.22,369.46,231.9,369.21,232.11z"/>
		<path class="st7" d="M369.23,234.39c-0.49,0.16-0.88,0.58-1.29,0.87c-0.45,0.31-0.91,0.6-1.4,0.86c-0.48,0.26-0.98,0.49-1.49,0.69
			c-0.52,0.2-1.08,0.35-1.6,0.56c-0.15,0.06-0.16,0.34,0.04,0.32c0.55-0.07,1.1-0.28,1.61-0.48c0.53-0.21,1.04-0.44,1.54-0.71
			c0.5-0.26,0.98-0.55,1.45-0.87c0.43-0.29,1-0.62,1.24-1.09C369.38,234.46,369.32,234.36,369.23,234.39z"/>
		<path class="st7" d="M344.94,210.4c-0.25-0.01-0.42,0.24-0.57,0.42c-0.19,0.22-0.36,0.47-0.52,0.71
			c-0.36,0.52-0.67,1.06-0.95,1.62c-0.27,0.54-0.51,1.09-0.71,1.65c-0.11,0.29-0.2,0.58-0.29,0.87c-0.08,0.26-0.23,0.61-0.13,0.87
			c0.06,0.15,0.22,0.2,0.35,0.09c0.19-0.17,0.21-0.48,0.28-0.72c0.08-0.29,0.17-0.59,0.27-0.88c0.2-0.57,0.43-1.13,0.71-1.67
			c0.26-0.51,0.56-1.01,0.88-1.49c0.17-0.25,0.35-0.5,0.53-0.75c0.14-0.19,0.33-0.39,0.28-0.64
			C345.05,210.44,344.99,210.41,344.94,210.4z"/>
		<path class="st7" d="M347.12,211.76c-0.25,0-0.42,0.2-0.58,0.37c-0.2,0.2-0.38,0.41-0.55,0.63c-0.34,0.43-0.62,0.91-0.86,1.4
			c-0.25,0.53-0.47,1.08-0.63,1.64c-0.09,0.3-0.16,0.61-0.23,0.92c-0.07,0.3-0.17,0.61-0.17,0.92c0,0.14,0.21,0.21,0.27,0.07
			c0.13-0.24,0.18-0.52,0.26-0.79c0.08-0.27,0.16-0.54,0.25-0.8c0.19-0.57,0.39-1.14,0.65-1.68c0.22-0.46,0.48-0.91,0.79-1.32
			c0.15-0.21,0.32-0.4,0.5-0.59c0.16-0.17,0.42-0.32,0.47-0.57C347.29,211.86,347.23,211.76,347.12,211.76z"/>
		<path class="st7" d="M348.45,214.17c-0.23-0.02-0.39,0.16-0.53,0.32c-0.17,0.18-0.31,0.37-0.45,0.57c-0.3,0.43-0.54,0.9-0.74,1.38
			c-0.2,0.47-0.37,0.95-0.53,1.43c-0.14,0.45-0.45,1.06-0.24,1.52c0.07,0.15,0.28,0.06,0.29-0.08c0.01-0.27,0.03-0.5,0.11-0.76
			c0.08-0.23,0.15-0.47,0.23-0.7c0.16-0.46,0.32-0.92,0.52-1.37c0.19-0.42,0.4-0.82,0.66-1.2c0.14-0.21,0.3-0.4,0.46-0.59
			c0.13-0.14,0.27-0.26,0.27-0.47C348.51,214.19,348.48,214.17,348.45,214.17z"/>
		<path class="st5" d="M362.75,176.06c-0.71,0.87-1.02,2.04-1.37,3.09c-0.4,1.19-0.71,2.42-0.97,3.64
			c-0.25,1.15-0.44,2.31-0.57,3.48c-0.12,1.06-0.45,2.47-0.01,3.48c0.04,0.09,0.18,0.08,0.22,0c0.23-0.44,0.26-0.94,0.3-1.43
			c0.05-0.61,0.11-1.22,0.18-1.82c0.15-1.22,0.34-2.43,0.59-3.63c0.24-1.16,0.54-2.3,0.86-3.44c0.31-1.09,0.81-2.19,0.9-3.32
			C362.88,176.05,362.79,176.01,362.75,176.06z"/>
		<path class="st5" d="M388.66,169.21c1.05-1.06,1.88-2.32,2.45-3.69c0.29-0.68,0.54-1.4,0.64-2.13c0.02-0.17,0.05-0.35,0.08-0.53
			c-0.18-0.04-0.36-0.07-0.54-0.1c-0.04,0.19-0.08,0.38-0.14,0.56c-0.23,0.68-0.43,1.35-0.74,2c-0.59,1.26-1.39,2.43-2.37,3.41
			c-0.99,0.98-2.16,1.78-3.42,2.35c-0.62,0.28-1.27,0.49-1.93,0.67c-0.34,0.09-0.69,0.18-1.04,0.25c-0.16,0.03-0.3,0.05-0.43,0.09
			c-0.14-0.01-0.28,0.05-0.34,0.22c-1.1,3.15-2.41,6.19-4.02,9.11c-0.59-1.49-1.02-3.04-1.44-4.59c-0.24-0.87-0.45-1.76-0.65-2.64
			c-0.19-0.81-0.29-1.77-0.66-2.51c-0.01-0.01-0.02-0.02-0.03-0.03c0.01-0.05,0.01-0.11-0.01-0.18c-0.13-0.38-0.83-0.45-1.16-0.56
			c-1.81-0.61-3.47-1.62-4.85-2.94c-1.3-1.25-2.37-2.8-3.16-4.44c-0.1,0.03-0.21,0.07-0.31,0.1c0.95,3.25,3.44,5.91,6.48,7.41
			c0.4,0.2,0.82,0.37,1.24,0.52c0.37,0.13,0.82,0.32,1.23,0.34c0,0.42,0.12,0.85,0.19,1.27c0.09,0.48,0.19,0.95,0.29,1.43
			c0.2,0.88,0.4,1.77,0.63,2.64c0.48,1.77,1.13,3.51,1.87,5.19c0.11,0.25,0.49,0.21,0.61,0c1.77-3.1,3.28-6.4,4.35-9.81
			c0.47,0.02,1.05-0.14,1.4-0.21c0.73-0.15,1.44-0.4,2.11-0.7C386.36,171.11,387.61,170.27,388.66,169.21z"/>
		<path class="st5" d="M392.87,181.22c-0.01-0.04-0.07-0.06-0.09-0.01c-0.46,1.04-0.38,2.36-0.48,3.48c-0.12,1.36-0.3,2.71-0.5,4.05
			c-0.39,2.61-1.05,5.14-1.56,7.73c-0.06,0.32,0.37,0.44,0.48,0.13c0.92-2.48,1.4-5.17,1.79-7.79c0.19-1.25,0.32-2.51,0.42-3.77
			c0.05-0.63,0.09-1.27,0.1-1.91C393.05,182.48,393.1,181.85,392.87,181.22z"/>
		<path class="st5" d="M385.13,204.07c-0.76,0.26-1.43,0.7-2.13,1.08c-0.79,0.43-1.61,0.81-2.45,1.13c-1.63,0.63-3.33,1.07-5.07,1.2
			c-3.26,0.24-6.73-0.6-9.37-2.56c-0.03-0.02-0.07,0.03-0.04,0.05c2.55,2.31,5.9,3.28,9.31,3.09c1.79-0.1,3.57-0.49,5.24-1.13
			c0.82-0.31,1.63-0.68,2.41-1.09c0.8-0.42,1.63-0.86,2.24-1.54C385.34,204.2,385.26,204.03,385.13,204.07z"/>
		<path class="st5" d="M386.18,201.78c-0.62,0.42-1.22,0.85-1.87,1.21c-0.37,0.2-0.75,0.37-1.12,0.56
			c-0.35,0.18-0.76,0.31-1.06,0.57c-0.02,0.02,0,0.04,0.02,0.04c0.35,0.05,0.72-0.09,1.05-0.18c0.35-0.1,0.68-0.24,1-0.39
			c0.68-0.3,1.35-0.65,1.95-1.09c0.22-0.16,0.73-0.43,0.7-0.75C386.82,201.39,386.34,201.68,386.18,201.78z"/>
		<path class="st5" d="M379.35,250.42c-0.01-0.56-0.01-1.11-0.01-1.67c0-0.5,0.13-1.17-0.11-1.62c-0.11-0.2-0.39-0.18-0.51,0
			c-0.15,0.23-0.16,0.52-0.17,0.79c-0.02,0.3-0.03,0.6-0.04,0.9c-0.02,0.56-0.02,1.11-0.01,1.67c0.02,1.14,0.02,2.3,0.31,3.41
			c0.09,0.33,0.52,0.23,0.55-0.07C379.48,252.69,379.37,251.55,379.35,250.42z"/>
		<g>
			<path class="st5" d="M373.58,268.25c0.47-2.3,0.98-4.6,1.53-6.88c0.57-2.35,1.29-4.7,1.69-7.08c0.01-0.08-0.11-0.15-0.15-0.06
				c-0.81,1.91-1.31,3.96-1.85,5.97c-0.56,2.08-1.05,4.18-1.51,6.28c-0.91,4.21-1.65,8.45-2.23,12.72
				c-1.14,8.46-1.71,17.07-1.5,25.6c0.11,4.63,0.37,9.28,1.02,13.87c-4.5-0.01-8.99-0.03-13.49-0.02c-0.65,0-1.3,0-1.95-0.01
				c0.04,0.29,0.07,0.57,0.11,0.84c5.15,0.01,10.29-0.01,15.44-0.02c0.98,0,1.97-0.01,2.95-0.01c-0.02-0.25-0.04-0.51-0.06-0.78
				c-0.76,0-1.53,0-2.29,0c-0.37-4.07-0.74-8.14-0.89-12.23c-0.16-4.25-0.18-8.53-0.01-12.78
				C370.73,285.13,371.88,276.6,373.58,268.25z"/>
			<path class="st5" d="M407.79,318.62c-1.06,0-2.13,0.01-3.19,0.01c0.04-0.05,0.07-0.12,0.07-0.21
				c-0.23-5.65-0.52-11.28-0.56-16.94c-0.02-2.78,0-5.56,0.1-8.34c0.1-2.81,0.37-5.6,0.45-8.41c0.15-5.52-0.88-10.96-1.13-16.46
				c-0.12-2.75,0-5.49,0.02-8.24c0.02-2.74-0.08-5.48-0.29-8.21c-0.48-6.04-1.4-12.18-3.27-17.96c-0.06-0.2-0.36-0.12-0.31,0.09
				c1.21,5.37,2.33,10.72,2.84,16.21c0.25,2.69,0.4,5.38,0.41,8.08c0.02,2.74-0.13,5.48-0.09,8.22c0.07,5.51,1.15,10.94,1.19,16.45
				c0.02,2.76-0.23,5.51-0.38,8.27c-0.16,2.78-0.26,5.56-0.27,8.34c-0.02,6.3,0.25,12.61,0.62,18.9c0.01,0.09,0.04,0.16,0.09,0.21
				c-3.46,0.01-6.92,0.02-10.38,0.03c-1.34,0-2.67,0.01-4.01,0.01c0.07,0.27,0.14,0.54,0.2,0.79c4.98,0.01,9.95,0.02,14.93,0.03
				c1,0,2,0.01,3,0.01C407.81,319.21,407.8,318.92,407.79,318.62z"/>
		</g>
		<path class="st5" d="M372.38,147.14c-0.06-0.71-0.35-1.4-0.89-1.68c-0.16-0.08-0.33-0.12-0.5-0.11c-0.12-0.02-0.24-0.01-0.35,0.03
			c-0.18,0.02-0.34,0.08-0.48,0.19c-0.08,0.07-0.17,0.15-0.25,0.22c-0.15,0.17-0.25,0.37-0.3,0.59c-0.22,1.02-0.07,3.09,1.44,2.91
			c0.35-0.04,0.7-0.18,0.92-0.45C372.29,148.43,372.43,147.78,372.38,147.14z"/>
		<path class="st5" d="M382.14,147.39c-0.06-0.71-0.35-1.4-0.89-1.68c-0.16-0.08-0.33-0.12-0.5-0.11c-0.12-0.02-0.24-0.01-0.35,0.03
			c-0.18,0.02-0.34,0.08-0.48,0.19c-0.08,0.07-0.17,0.15-0.25,0.22c-0.15,0.17-0.25,0.37-0.3,0.59c-0.22,1.02-0.07,3.09,1.44,2.91
			c0.35-0.04,0.7-0.18,0.92-0.45C382.05,148.68,382.19,148.02,382.14,147.39z"/>
		<path class="st7" d="M375.89,152.57c-0.14-0.13-0.28-0.26-0.44-0.37c-0.15-0.1-0.3-0.18-0.43-0.31c-0.26-0.24-0.42-0.57-0.16-0.87
			c0.31-0.35,0.54-0.72,0.7-1.16c0.13-0.38,0.3-0.95,0.1-1.33c-0.09-0.16-0.33-0.15-0.42,0c-0.13,0.21-0.13,0.49-0.2,0.72
			c-0.07,0.23-0.16,0.44-0.28,0.65c-0.12,0.2-0.26,0.38-0.42,0.56c-0.2,0.21-0.37,0.43-0.4,0.73c-0.05,0.47,0.2,0.93,0.55,1.23
			c0.17,0.15,0.37,0.28,0.57,0.38c0.22,0.1,0.43,0.13,0.67,0.14C375.92,152.94,376.01,152.69,375.89,152.57z"/>
		<path class="st4" d="M380.53,145.98c-0.03-0.12-0.09-0.22-0.18-0.3l-0.14-0.11c-0.11-0.06-0.22-0.09-0.34-0.09
			c-0.09,0-0.18,0.02-0.26,0.06c-0.08,0.03-0.16,0.07-0.22,0.14c-0.07,0.06-0.11,0.13-0.14,0.22c-0.04,0.08-0.06,0.17-0.06,0.26
			c0.01,0.06,0.02,0.12,0.02,0.18c0.03,0.12,0.09,0.22,0.18,0.3l0.14,0.11c0.11,0.06,0.22,0.09,0.34,0.09
			c0.09,0,0.18-0.02,0.26-0.06c0.08-0.03,0.16-0.07,0.22-0.14c0.07-0.06,0.11-0.13,0.14-0.22c0.04-0.08,0.06-0.17,0.06-0.26
			C380.55,146.1,380.54,146.04,380.53,145.98z"/>
		<path class="st12" d="M370.11,150.15c0,0.73-0.91,1.32-2.03,1.32c-1.12,0-2.03-0.59-2.03-1.32c0-0.73,0.91-1.32,2.03-1.32
			C369.2,148.83,370.11,149.42,370.11,150.15z"/>
		<path class="st12" d="M385.99,150.44c0,0.73-0.91,1.32-2.03,1.32c-1.12,0-2.03-0.59-2.03-1.32c0-0.73,0.91-1.32,2.03-1.32
			C385.09,149.12,385.99,149.71,385.99,150.44z"/>
		<path class="st12" d="M382.55,144.79c-0.07-0.07-0.19-0.11-0.29-0.08c-0.02,0.01-0.05,0.02-0.07,0.03
			c-0.03,0.01-0.05,0.02-0.07,0.04c-0.01,0.01-0.03,0.02-0.04,0.03c0,0-0.01,0.01-0.01,0.01c-0.02,0.02-0.04,0.04-0.06,0.06
			l-0.12,0.12c-0.03,0.04-0.06,0.07-0.09,0.12c-0.01,0.02-0.02,0.05-0.03,0.07c-0.01,0.01-0.01,0.02-0.02,0.04
			c0,0.01-0.01,0.01-0.01,0.02c-0.01,0.01-0.01,0.02-0.01,0.03c-0.01,0.02-0.02,0.04-0.02,0.06c-0.01,0.06,0,0.11,0.03,0.16
			c0.02,0.03,0.05,0.06,0.08,0.08c0.01,0.01,0.02,0.01,0.04,0.02c0.06,0.03,0.13,0.03,0.2,0c0.03-0.01,0.07-0.03,0.1-0.05
			c0.02-0.01,0.05-0.02,0.07-0.03c0.05-0.02,0.09-0.06,0.12-0.09c0.04-0.04,0.07-0.07,0.11-0.11c0.02-0.02,0.04-0.04,0.06-0.06
			c0,0,0.01-0.01,0.01-0.01c0.02-0.02,0.03-0.04,0.05-0.06l0.01-0.01c0.02-0.03,0.03-0.07,0.04-0.11
			C382.66,144.98,382.63,144.86,382.55,144.79z"/>
		<path class="st12" d="M383.06,145.97c-0.01-0.01-0.01-0.03-0.02-0.05c-0.01-0.02-0.03-0.04-0.05-0.05
			c-0.01-0.01-0.03-0.02-0.04-0.02c-0.02-0.01-0.05-0.02-0.07-0.02l-0.09-0.01c-0.02,0-0.03,0-0.05-0.01c-0.03,0-0.06,0-0.1,0.01
			c-0.03,0.01-0.06,0.01-0.09,0.02c-0.04,0.01-0.07,0.03-0.11,0.05c-0.1,0.05-0.1,0.2,0,0.25c0.03,0.02,0.07,0.04,0.11,0.05
			c0.03,0.01,0.06,0.01,0.09,0.02c0.03,0.01,0.06,0.01,0.09,0.01c0.02,0,0.03,0,0.05-0.01l0.1-0.01c0.02,0,0.03,0,0.05-0.01
			c0.02-0.01,0.05-0.02,0.06-0.03c0.03-0.02,0.06-0.06,0.07-0.1c0-0.02,0.01-0.03,0.01-0.05C383.07,146,383.06,145.98,383.06,145.97
			z"/>
		<path class="st4" d="M370.44,145.75c-0.03-0.12-0.09-0.22-0.18-0.3l-0.14-0.11c-0.11-0.06-0.22-0.09-0.34-0.09
			c-0.09,0-0.18,0.02-0.26,0.06c-0.08,0.03-0.16,0.07-0.22,0.14c-0.07,0.06-0.11,0.14-0.14,0.22c-0.04,0.08-0.06,0.17-0.06,0.26
			c0.01,0.06,0.02,0.12,0.02,0.18c0.03,0.12,0.09,0.22,0.18,0.3l0.14,0.11c0.11,0.06,0.22,0.09,0.34,0.09
			c0.09,0,0.18-0.02,0.26-0.06c0.08-0.03,0.16-0.07,0.22-0.14c0.07-0.06,0.11-0.13,0.14-0.22c0.04-0.08,0.06-0.17,0.06-0.26
			C370.45,145.88,370.45,145.81,370.44,145.75z"/>
		<path class="st12" d="M368.92,144.84c-0.01-0.02-0.02-0.03-0.04-0.05c-0.03-0.03-0.06-0.04-0.09-0.05l0.03,0.01
			c-0.03-0.01-0.05-0.03-0.08-0.05c-0.01-0.01-0.01-0.01-0.02-0.02c-0.02-0.02-0.04-0.04-0.06-0.05c-0.01,0-0.02-0.01-0.03-0.01
			c-0.03-0.02-0.05-0.04-0.09-0.05c-0.02-0.01-0.05,0-0.07-0.01c0,0,0.01,0,0.01,0c-0.04-0.01-0.07,0.01-0.1,0.03
			c0,0-0.01,0.01-0.01,0.01c-0.01,0.01-0.02,0.03-0.03,0.04c-0.01,0.02-0.02,0.03-0.02,0.05c0,0.02-0.01,0.04-0.01,0.06
			c0,0.04,0.01,0.07,0.02,0.11c0,0,0,0.01,0,0.01c0.01,0.04,0.03,0.07,0.06,0.1c0.01,0.01,0.01,0.02,0.02,0.02
			c0.04,0.04,0.09,0.08,0.15,0.11c0.01,0,0.02,0.01,0.03,0.01c0.04,0.02,0.09,0.04,0.13,0.04c0.06,0,0.12-0.02,0.16-0.07
			c0.03-0.04,0.07-0.09,0.06-0.14C368.94,144.92,368.94,144.88,368.92,144.84z"/>
		<path class="st12" d="M368.47,145.9c-0.03-0.02-0.06-0.04-0.1-0.05c-0.04-0.01-0.08-0.01-0.12-0.02c-0.05,0-0.09-0.01-0.14-0.01
			c-0.13,0-0.26,0.01-0.37,0.07c-0.08,0.05-0.13,0.16-0.1,0.26c0.03,0.1,0.12,0.16,0.22,0.17c0.02,0,0.04,0,0.06,0
			c0.04,0,0.08-0.01,0.12-0.01c0.03-0.01,0.06-0.01,0.09-0.02c0.04,0,0.08-0.01,0.11-0.01c0.02,0,0.05,0,0.07,0
			c0.04,0,0.07-0.01,0.11-0.03c0.07-0.03,0.13-0.08,0.14-0.16C368.57,146.01,368.54,145.94,368.47,145.9z"/>
		<g>
			<path class="st10" d="M370.97,141.58c0.08-0.11,0.14-0.2,0.16-0.34c0.02-0.12,0-0.27-0.07-0.38c-0.05-0.07-0.1-0.15-0.16-0.21
				c-0.12-0.12-0.26-0.18-0.42-0.23c-0.21-0.08-0.47-0.04-0.68,0c-0.29,0.05-0.58,0.17-0.84,0.31c-0.25,0.14-0.51,0.31-0.69,0.53
				c-0.24,0.28-0.5,0.67-0.5,1.04c0.01,0.53,0.57,0.83,1.02,0.59c0.2-0.11,0.35-0.31,0.53-0.46c-0.05,0.04-0.11,0.08-0.16,0.12
				c0.08-0.06,0.16-0.13,0.24-0.19c0.14-0.11,0.3-0.19,0.46-0.26c0.13-0.05,0.27-0.1,0.41-0.13c0.14-0.03,0.28-0.08,0.4-0.15
				c0.1-0.06,0.2-0.13,0.27-0.22c0,0,0.01-0.01,0.01-0.01C370.95,141.6,370.95,141.6,370.97,141.58z"/>
			<path class="st10" d="M370.96,141.59c0.02-0.02,0.09-0.11,0.06-0.08C371.01,141.52,370.97,141.57,370.96,141.59z"/>
		</g>
		<g>
			<path class="st10" d="M382.51,142.55C382.51,142.55,382.51,142.55,382.51,142.55C382.47,142.57,382.46,142.58,382.51,142.55z"/>
			<path class="st10" d="M379.66,141.43C379.66,141.43,379.66,141.43,379.66,141.43c-0.02-0.01-0.03-0.02-0.04-0.03
				C379.63,141.4,379.64,141.42,379.66,141.43z"/>
			<path class="st10" d="M382.7,141.43c-0.3-0.49-0.82-0.8-1.36-0.96c-0.26-0.08-0.54-0.13-0.82-0.13c-0.35,0-0.71,0.04-0.96,0.3
				c-0.25,0.25-0.16,0.59,0.09,0.79c0.07,0.06,0.14,0.1,0.23,0.13c0.05,0.02,0.09,0.03,0.14,0.04c0.1,0.02,0.2,0.04,0.31,0.08
				c0.09,0.03,0.18,0.06,0.27,0.09c0.05,0.02,0.09,0.04,0.14,0.05c-0.22-0.07-0.05-0.02,0.01,0.01c0.18,0.09,0.36,0.2,0.53,0.32
				c0.01,0,0.01,0.01,0.02,0.02c-0.01-0.01-0.01-0.01-0.03-0.03c0.07,0.07,0.16,0.13,0.25,0.19c0.08,0.05,0.16,0.11,0.25,0.15
				c0.08,0.04,0.17,0.08,0.26,0.11c0.06,0.02,0.14,0.03,0.2,0.03c0.11,0,0.19-0.04,0.29-0.07c0.01-0.01,0.02-0.01,0.04-0.02
				l-0.04,0.02c0,0,0,0,0,0c0.01,0,0.02-0.01,0.03-0.01c0.01,0,0.01-0.01,0.02-0.01c0,0,0,0,0,0c0.03-0.02,0.07-0.05,0.09-0.07
				C382.95,142.19,382.89,141.74,382.7,141.43z"/>
			<path class="st10" d="M381.3,142.16C381.4,142.26,381.35,142.21,381.3,142.16L381.3,142.16z"/>
			<path class="st10" d="M379.66,141.43C379.66,141.43,379.66,141.43,379.66,141.43C379.71,141.47,379.69,141.45,379.66,141.43z"/>
		</g>
		<g>
			<path class="st7" d="M376.82,154.33c-0.39-0.23-0.91-0.32-1.35-0.28c-0.54,0.04-1.04,0.22-1.45,0.58
				c-0.27,0.25,0.08,0.68,0.39,0.5c0.34-0.19,0.71-0.31,1.1-0.31c0.1,0,0.21,0.01,0.31,0.02c0.01,0,0.09,0.01,0.05,0
				c-0.04,0,0.03,0,0.03,0c0.06,0.01,0.12,0.02,0.18,0.04c0.24,0.06,0.4,0.15,0.59,0.21c0.12,0.04,0.27,0.09,0.39,0.04
				c0.02-0.01,0.07-0.05,0.09-0.06c0.03-0.03,0.06-0.05,0.08-0.1C377.34,154.71,377.03,154.46,376.82,154.33z"/>
			<path class="st7" d="M377.14,155.08c-0.01,0-0.01,0.01-0.01,0.02C377.16,155.07,377.15,155.08,377.14,155.08z"/>
		</g>
		<path class="st4" d="M307.91,158.46c-0.2-1.5-1.64-3.1-3.31-2.92c-1.32,0.15-2.4,0.5-3.57,1.13c-0.57,0.31-1.13,0.65-1.67,1.01
			c-1.34,0.89-2.64,1.9-3.79,3.04c-1.11,1.1-2.16,2.34-2.85,3.75c-0.39,0.8-0.72,1.63-0.95,2.49c-0.2,0.73-0.25,1.44-0.05,2.17
			c0.31,1.14,1.36,2.28,2.66,2.18c0.88-0.07,1.62-0.38,2.26-1c0.36-0.35,0.6-0.77,0.88-1.19c0.31-0.47,0.64-0.91,0.98-1.36
			c0.34-0.42,0.67-0.85,1-1.28c-0.18,0.23-0.36,0.46-0.54,0.69c0.89-1.14,1.92-2.15,3.05-3.05c0.91-0.67,1.88-1.31,2.89-1.81
			c0.2-0.06,0.39-0.13,0.6-0.17c0.75-0.11,1.67-0.9,2.01-1.55C307.87,159.93,308.01,159.23,307.91,158.46z"/>
		<path class="st4" d="M318.96,156.75c0-0.26-0.07-0.51-0.2-0.74c-0.07-0.25-0.19-0.46-0.37-0.64c-0.07-0.13-0.16-0.25-0.28-0.34
			c-0.2-0.15-0.4-0.31-0.59-0.46c-0.04-0.03-0.08-0.05-0.12-0.08c-0.29-0.19-0.61-0.31-0.94-0.4c-0.21-0.06-0.42-0.1-0.64-0.14
			c-0.44-0.08-0.88-0.14-1.32-0.18c-0.22-0.02-0.43-0.04-0.65-0.02c-0.43,0.05-0.86,0.1-1.28,0.19c-0.1,0.02-0.21,0.05-0.31,0.07
			c-0.16,0.04-0.29,0.1-0.46,0.17c-0.32,0.14-0.66,0.33-0.9,0.6c-0.44,0.51-0.8,1.16-0.77,1.86c0.03,0.65,0.24,1.43,0.77,1.86
			c0.38,0.3,0.72,0.6,1.22,0.72c0.08,0.02,0.17,0.03,0.25,0.04c0.22,0.03,0.43,0.07,0.64,0.12c0.24,0.06,0.49,0.09,0.74,0.14
			c0.25,0.05,0.49,0.12,0.73,0.2c0.11,0.04,0.23,0.08,0.34,0.12c0.12,0.05,0.26,0.07,0.39,0.09c-0.01,0-0.03,0-0.04-0.01
			c0.02,0,0.04,0.01,0.06,0.01c0.11,0.02,0.22,0.04,0.33,0.05c0.16,0.03,0.31,0.05,0.46,0.05c0.15,0.01,0.3,0,0.45-0.05
			c0.26,0,0.51-0.07,0.74-0.2c0.25-0.07,0.46-0.19,0.64-0.37c0.11-0.07,0.21-0.15,0.3-0.24c0.02-0.02,0.03-0.03,0.05-0.05
			c0.5-0.52,0.79-1.23,0.79-1.95C319.02,157.04,318.99,156.94,318.96,156.75z"/>
		<path class="st4" d="M327.64,197.06c-0.1-0.41-0.29-0.77-0.57-1.08c-0.58-0.75-1.51-1.31-2.5-1.25c-0.1,0.01-0.2,0.01-0.3,0.01
			c-0.72,0.03-1.31,0.2-1.92,0.54c-0.23,0.12-0.44,0.25-0.66,0.41c-0.2,0.14-0.4,0.27-0.61,0.39c-0.26,0.15-0.49,0.33-0.72,0.51
			c-0.83,0.6-1.84,1.03-2.33,1.97c-0.23,0.46-0.33,0.91-0.26,1.42c0.07,0.52,0.28,0.88,0.61,1.28c0.7,0.84,1.73,0.95,2.74,1.05
			c0.45,0.04,0.9,0.06,1.34,0.03c0.75-0.04,1.42-0.24,2.11-0.52c0.54-0.22,0.92-0.37,1.36-0.7c0.53-0.4,1.02-0.75,1.3-1.38
			c0.15-0.33,0.28-0.66,0.42-0.99C327.79,198.18,327.79,197.62,327.64,197.06z"/>
	</g>
	<g>
		<polygon class="st13" points="376.76,442.93 366,442.93 343.74,352.24 354.51,352.24 		"/>
		<polygon class="st13" points="442.57,442.93 431.8,442.93 409.54,352.24 420.31,352.24 		"/>
		<polygon class="st11" points="373.77,442.93 363,442.93 340.75,352.24 351.52,352.24 		"/>
		<polygon class="st13" points="316.34,442.93 327.11,442.93 349.37,352.24 338.6,352.24 		"/>
		<polygon class="st11" points="439.81,442.93 429.05,442.93 406.79,352.24 417.56,352.24 		"/>
		
			<rect x="355.11" y="375.45" transform="matrix(-1 -1.224647e-16 1.224647e-16 -1 773.8649 760.2345)" class="st11" width="63.65" height="9.33"/>
		
			<rect x="365.16" y="408.71" transform="matrix(-1 -1.224647e-16 1.224647e-16 -1 793.9645 826.7546)" class="st11" width="63.65" height="9.33"/>
		<polygon class="st4" points="312.2,442.93 322.96,442.93 345.22,352.24 334.45,352.24 		"/>
		<polygon class="st13" points="382.23,442.93 392.99,442.93 415.25,352.24 404.48,352.24 		"/>
		<polygon class="st4" points="378.24,442.93 389.01,442.93 411.26,352.24 400.49,352.24 		"/>
		<rect x="333.25" y="375.45" class="st4" width="63.65" height="9.33"/>
		<rect x="323.2" y="408.71" class="st4" width="63.65" height="9.33"/>
		<path class="st4" d="M419.32,354.63H331.9c-2.11,0-3.83-1.71-3.83-3.83v-0.16c0-2.11,1.71-3.83,3.83-3.83h87.42
			c2.11,0,3.83,1.71,3.83,3.83v0.16C423.14,352.92,421.43,354.63,419.32,354.63z"/>
	</g>
	<g>
		<path class="st14" d="M94.08,273.17h71.3c2.38,0,4.62,0.93,6.11,2.54l10.07,10.84c0.99,1.07,2.49,1.69,4.08,1.69h111.31
			c3.94,0,7.14,2.77,7.14,6.19v135.12c0,7.38-6.9,13.36-15.4,13.36H97.6c-5.96,0-10.78-4.19-10.78-9.36V279.48
			C86.81,276,90.07,273.17,94.08,273.17z"/>
		<g>
			<polygon class="st4" points="146.36,192.47 116.36,222.47 116.36,337.43 263.41,337.43 263.41,192.47 			"/>
			<polygon class="st11" points="146.36,222.47 146.36,192.47 116.36,222.47 			"/>
		</g>
		<path class="st15" d="M69.06,307.04h197.58c4.66,0,8.65,2.88,9.51,6.85l25.78,119.09c1.12,5.17-3.45,9.95-9.51,9.95H94.84
			c-4.66,0-8.65-2.88-9.51-6.85L59.55,316.99C58.43,311.82,63,307.04,69.06,307.04z"/>
		<g>
			<path class="st12" d="M195.89,254.04c3.76-3.81,7.51-7.63,11.27-11.45c2.21-2.25,2.41-6.3,0-8.51c-2.39-2.19-6.15-2.4-8.51,0
				c-3.81,3.74-7.62,7.49-11.42,11.24c-3.76-3.76-7.54-7.51-11.36-11.22c-2.22-2.29-6.41-2.4-8.61,0c-2.26,2.46-2.37,6.17,0,8.61
				c3.7,3.81,7.43,7.58,11.19,11.33c-3.75,3.75-7.49,7.51-11.18,11.32c-2.29,2.22-2.4,6.41,0,8.61c2.46,2.26,6.17,2.37,8.61,0
				c3.82-3.7,7.59-7.45,11.35-11.21c3.8,3.75,7.6,7.49,11.41,11.23c2.25,2.21,6.3,2.41,8.51,0c2.19-2.39,2.4-6.15,0-8.51
				C203.39,261.66,199.64,257.85,195.89,254.04z"/>
		</g>
	</g>
	<path class="st3" d="M74.57,202.22h-1.29c-0.2-0.62-0.45-1.21-0.74-1.78l0.91-0.91c0.86-0.86,0.86-2.26,0-3.12l-2.18-2.18
		c-0.86-0.86-2.26-0.86-3.12,0l-0.91,0.91c-0.57-0.29-1.16-0.54-1.78-0.74v-1.29c0-1.22-0.99-2.21-2.21-2.21h-3.08
		c-1.22,0-2.21,0.99-2.21,2.21v1.29c-0.62,0.2-1.21,0.45-1.78,0.74l-0.91-0.91c-0.86-0.86-2.26-0.86-3.12,0l-2.18,2.18
		c-0.86,0.86-0.86,2.26,0,3.12l0.91,0.91c-0.29,0.57-0.54,1.16-0.74,1.78h-1.29c-1.22,0-2.21,0.99-2.21,2.21v3.08
		c0,1.22,0.99,2.21,2.21,2.21h1.29c0.2,0.62,0.45,1.21,0.74,1.78l-0.91,0.91c-0.86,0.86-0.86,2.26,0,3.12l2.18,2.18
		c0.86,0.86,2.26,0.86,3.12,0l0.91-0.91c0.57,0.29,1.16,0.54,1.78,0.74v1.29c0,1.22,0.99,2.21,2.21,2.21h3.08
		c1.22,0,2.21-0.99,2.21-2.21v-1.29c0.62-0.2,1.21-0.45,1.78-0.74l0.91,0.91c0.86,0.86,2.26,0.86,3.12,0l2.18-2.18
		c0.86-0.86,0.86-2.26,0-3.12l-0.91-0.91c0.29-0.57,0.54-1.16,0.74-1.78h1.29c1.22,0,2.21-0.99,2.21-2.21v-3.08
		C76.78,203.21,75.79,202.22,74.57,202.22z M61.71,213.7c-4.27,0-7.73-3.46-7.73-7.73c0-4.27,3.46-7.73,7.73-7.73
		c4.27,0,7.73,3.46,7.73,7.73C69.44,210.24,65.98,213.7,61.71,213.7z"/>
	<path class="st3" d="M324.97,254.44h-1.29c-0.2-0.62-0.45-1.21-0.74-1.78l0.91-0.91c0.86-0.86,0.86-2.26,0-3.12l-2.18-2.18
		c-0.86-0.86-2.26-0.86-3.12,0l-0.91,0.91c-0.57-0.29-1.16-0.54-1.78-0.74v-1.29c0-1.22-0.99-2.21-2.21-2.21h-3.08
		c-1.22,0-2.21,0.99-2.21,2.21v1.29c-0.62,0.2-1.21,0.45-1.78,0.74l-0.91-0.91c-0.86-0.86-2.26-0.86-3.12,0l-2.18,2.18
		c-0.86,0.86-0.86,2.26,0,3.12l0.91,0.91c-0.29,0.57-0.54,1.16-0.74,1.78h-1.29c-1.22,0-2.21,0.99-2.21,2.21v3.08
		c0,1.22,0.99,2.21,2.21,2.21h1.29c0.2,0.62,0.45,1.21,0.74,1.78l-0.91,0.91c-0.86,0.86-0.86,2.26,0,3.12l2.18,2.18
		c0.86,0.86,2.26,0.86,3.12,0l0.91-0.91c0.57,0.29,1.16,0.54,1.78,0.74v1.29c0,1.22,0.99,2.21,2.21,2.21h3.08
		c1.22,0,2.21-0.99,2.21-2.21v-1.29c0.62-0.2,1.21-0.45,1.78-0.74l0.91,0.91c0.86,0.86,2.26,0.86,3.12,0l2.18-2.18
		c0.86-0.86,0.86-2.26,0-3.12l-0.91-0.91c0.29-0.57,0.54-1.16,0.74-1.78h1.29c1.22,0,2.21-0.99,2.21-2.21v-3.08
		C327.18,255.43,326.19,254.44,324.97,254.44z M312.11,265.92c-4.27,0-7.73-3.46-7.73-7.73s3.46-7.73,7.73-7.73s7.73,3.46,7.73,7.73
		S316.38,265.92,312.11,265.92z"/>
	<path class="st3" d="M109.28,179.38l-1.7-0.64c0.04-0.91,0.01-1.82-0.09-2.72l1.66-0.75c1.57-0.71,2.26-2.55,1.56-4.12l-1.78-3.95
		c-0.71-1.57-2.55-2.26-4.12-1.56l-1.66,0.75c-0.6-0.67-1.26-1.29-1.98-1.86l0.64-1.7c0.61-1.61-0.2-3.4-1.81-4.01l-4.05-1.54
		c-1.61-0.61-3.4,0.2-4.01,1.81l-0.64,1.7c-0.91-0.04-1.82-0.01-2.72,0.09l-0.75-1.66c-0.71-1.57-2.55-2.26-4.12-1.56l-3.95,1.78
		c-1.57,0.71-2.26,2.55-1.56,4.12l0.75,1.66c-0.67,0.61-1.29,1.26-1.86,1.98l-1.7-0.64c-1.61-0.61-3.4,0.2-4.01,1.81l-1.54,4.05
		c-0.61,1.61,0.2,3.4,1.81,4.01l1.7,0.64c-0.04,0.91-0.01,1.82,0.09,2.72l-1.66,0.75c-1.57,0.71-2.26,2.55-1.56,4.12l1.78,3.95
		c0.71,1.57,2.55,2.26,4.12,1.56l1.66-0.75c0.6,0.67,1.26,1.29,1.98,1.86l-0.64,1.7c-0.61,1.61,0.2,3.4,1.81,4.01l4.05,1.54
		c1.61,0.61,3.4-0.2,4.01-1.81l0.64-1.7c0.91,0.04,1.82,0.01,2.72-0.09l0.75,1.66c0.71,1.57,2.55,2.26,4.12,1.56l3.95-1.78
		c1.57-0.71,2.26-2.55,1.56-4.12l-0.75-1.66c0.67-0.6,1.29-1.26,1.86-1.98l1.7,0.64c1.61,0.61,3.4-0.2,4.01-1.81l1.54-4.05
		C111.7,181.78,110.89,179.99,109.28,179.38z M86.62,188.08c-5.62-2.13-8.46-8.42-6.33-14.04c2.13-5.62,8.42-8.46,14.04-6.33
		c5.62,2.13,8.46,8.42,6.33,14.04C98.53,187.38,92.24,190.21,86.62,188.08z"/>
	<g>
		<g>
			<polygon class="st4" points="128.03,104.33 119.92,121.53 137.33,170.02 182.91,153.66 160.95,92.5 			"/>
			<polygon class="st16" points="132.57,116.98 128.03,104.33 119.92,121.53 			"/>
		</g>
		<g>
			<path class="st12" d="M153.76,129.61c1.13-2.43,2.25-4.86,3.37-7.3c0.66-1.43,0.07-3.38-1.44-4.01c-1.49-0.63-3.3-0.09-4.01,1.44
				c-1.16,2.41-2.32,4.81-3.48,7.22c-2.41-1.14-4.82-2.26-7.25-3.36c-1.43-0.7-3.42-0.05-4.06,1.46c-0.65,1.54-0.07,3.31,1.46,4.06
				c2.39,1.17,4.78,2.31,7.19,3.44c-1.13,2.4-2.26,4.81-3.35,7.23c-0.7,1.43-0.05,3.43,1.46,4.06c1.54,0.65,3.31,0.07,4.06-1.46
				c1.17-2.39,2.32-4.79,3.45-7.2c2.42,1.12,4.85,2.24,7.27,3.36c1.43,0.66,3.38,0.07,4.01-1.44c0.63-1.49,0.09-3.3-1.44-4.01
				C158.59,131.93,156.18,130.76,153.76,129.61z"/>
		</g>
	</g>
	<g>
		<g>
			<polygon class="st4" points="223.34,71.94 208.16,78.14 190.94,119.11 229.44,135.29 251.15,83.63 			"/>
			<polygon class="st16" points="218.85,82.63 223.34,71.94 208.16,78.14 			"/>
		</g>
		<g>
			<path class="st12" d="M224.95,103.01c2.13-0.89,4.26-1.78,6.4-2.67c1.26-0.53,2.01-2.1,1.42-3.39c-0.58-1.27-2.05-1.98-3.39-1.42
				c-2.14,0.85-4.28,1.71-6.42,2.56c-0.87-2.13-1.74-4.25-2.64-6.36c-0.5-1.28-2.15-2.03-3.43-1.44c-1.31,0.6-1.97,2.06-1.44,3.43
				c0.83,2.13,1.69,4.26,2.56,6.38c-2.12,0.87-4.24,1.74-6.34,2.64c-1.28,0.5-2.03,2.15-1.44,3.43c0.6,1.31,2.06,1.97,3.43,1.44
				c2.14-0.84,4.27-1.69,6.39-2.56c0.88,2.13,1.77,4.25,2.66,6.38c0.52,1.26,2.1,2.01,3.39,1.42c1.27-0.58,1.98-2.05,1.42-3.39
				C226.66,107.3,225.81,105.16,224.95,103.01z"/>
		</g>
	</g>
</g>
<g id="TEXT">
	<text transform="matrix(0.9707 -0.2403 0.2403 0.9707 367.7045 106.3843)" class="st4 st17 st18">?</text>
	<text transform="matrix(0.756 -0.6546 0.6546 0.756 356.6145 119.1745)" class="st4 st17 st19">?</text>
	<text transform="matrix(0.909 0.4168 -0.4168 0.909 383.857 104.7404)" class="st4 st17 st19">?</text>
</g>
</svg>
